<svg xmlns="http://www.w3.org/2000/svg" viewBox="0 0 1024 1536">
<style>path{fill:#63A8DB;}</style>
<path d="M 817,1118 L 817,1120 L 816,1121 L 816,1122 L 815,1123 L 815,1125 L 814,1126 L 814,1128 L 813,1129 L 813,1131 L 812,1132 L 812,1133 L 811,1134 L 811,1136 L 810,1137 L 810,1139 L 809,1140 L 809,1141 L 808,1142 L 808,1145 L 807,1146 L 807,1147 L 806,1148 L 806,1150 L 810,1150 L 811,1149 L 811,1147 L 812,1146 L 812,1144 L 813,1143 L 827,1143 L 828,1144 L 828,1146 L 829,1147 L 829,1149 L 830,1150 L 835,1150 L 834,1149 L 834,1147 L 833,1146 L 833,1144 L 832,1143 L 832,1142 L 831,1141 L 831,1139 L 830,1138 L 830,1137 L 829,1136 L 829,1134 L 828,1133 L 828,1131 L 827,1130 L 827,1129 L 826,1128 L 826,1126 L 825,1125 L 825,1123 L 824,1122 L 824,1121 L 823,1120 L 823,1118 Z"/>
<path d="M 790,1118 L 790,1150 L 795,1150 L 795,1118 Z"/>
<path d="M 757,1118 L 757,1150 L 762,1150 L 762,1139 L 763,1138 L 764,1139 L 770,1139 L 771,1138 L 774,1138 L 778,1134 L 778,1133 L 779,1132 L 779,1125 L 778,1124 L 778,1123 L 774,1119 L 771,1119 L 770,1118 Z"/>
<path d="M 728,1118 L 728,1119 L 727,1120 L 727,1122 L 726,1123 L 726,1125 L 725,1126 L 725,1127 L 724,1128 L 724,1130 L 723,1131 L 723,1133 L 722,1134 L 722,1135 L 721,1136 L 721,1138 L 720,1139 L 720,1140 L 719,1141 L 719,1143 L 718,1144 L 718,1146 L 717,1147 L 717,1149 L 716,1150 L 721,1150 L 721,1149 L 722,1148 L 722,1146 L 723,1145 L 723,1144 L 724,1143 L 736,1143 L 737,1142 L 738,1143 L 738,1144 L 739,1145 L 739,1146 L 740,1147 L 740,1149 L 741,1150 L 746,1150 L 745,1149 L 745,1148 L 744,1147 L 744,1145 L 743,1144 L 743,1142 L 742,1141 L 742,1140 L 741,1139 L 741,1137 L 740,1136 L 740,1134 L 739,1133 L 739,1132 L 738,1131 L 738,1129 L 737,1128 L 737,1126 L 736,1125 L 736,1124 L 735,1123 L 735,1121 L 734,1120 L 734,1119 L 733,1118 Z"/>
<path d="M 685,1118 L 685,1150 L 689,1150 L 689,1137 L 690,1136 L 693,1136 L 695,1138 L 695,1139 L 697,1141 L 697,1142 L 699,1144 L 699,1145 L 700,1146 L 700,1147 L 702,1149 L 702,1150 L 708,1150 L 707,1149 L 707,1148 L 705,1146 L 705,1145 L 704,1144 L 704,1143 L 702,1141 L 702,1140 L 701,1139 L 701,1138 L 700,1137 L 701,1136 L 702,1136 L 703,1135 L 704,1135 L 707,1132 L 707,1130 L 708,1129 L 708,1126 L 707,1125 L 707,1123 L 704,1120 L 703,1120 L 702,1119 L 700,1119 L 699,1118 Z"/>
<path d="M 651,1118 L 651,1150 L 672,1150 L 672,1147 L 671,1146 L 657,1146 L 656,1145 L 656,1137 L 657,1136 L 669,1136 L 669,1132 L 657,1132 L 656,1131 L 656,1123 L 657,1122 L 671,1122 L 671,1118 Z"/>
<path d="M 616,1118 L 616,1122 L 624,1122 L 625,1123 L 625,1150 L 630,1150 L 630,1123 L 631,1122 L 640,1122 L 640,1118 Z"/>
<path d="M 589,1118 L 588,1119 L 586,1119 L 585,1120 L 584,1120 L 579,1125 L 579,1126 L 578,1127 L 578,1128 L 577,1129 L 577,1139 L 578,1140 L 578,1141 L 579,1142 L 579,1143 L 585,1149 L 586,1149 L 587,1150 L 590,1150 L 591,1151 L 594,1151 L 595,1150 L 598,1150 L 599,1149 L 601,1149 L 607,1143 L 607,1142 L 608,1141 L 608,1139 L 609,1138 L 609,1130 L 608,1129 L 608,1127 L 606,1125 L 606,1124 L 603,1121 L 602,1121 L 600,1119 L 598,1119 L 597,1118 Z"/>
<path d="M 560,1118 L 560,1120 L 559,1121 L 559,1123 L 560,1124 L 560,1127 L 559,1128 L 560,1129 L 559,1130 L 560,1131 L 560,1135 L 559,1136 L 560,1137 L 560,1138 L 559,1139 L 560,1140 L 560,1142 L 559,1143 L 560,1144 L 559,1145 L 559,1149 L 560,1150 L 564,1150 L 564,1118 Z"/>
<path d="M 532,1118 L 531,1119 L 530,1119 L 527,1122 L 527,1123 L 526,1124 L 526,1129 L 527,1130 L 527,1131 L 528,1132 L 529,1132 L 531,1134 L 532,1134 L 533,1135 L 534,1135 L 535,1136 L 536,1136 L 537,1137 L 538,1137 L 542,1141 L 542,1144 L 540,1146 L 539,1146 L 538,1147 L 535,1147 L 534,1146 L 532,1146 L 529,1143 L 528,1143 L 525,1146 L 527,1148 L 528,1148 L 529,1149 L 530,1149 L 531,1150 L 533,1150 L 534,1151 L 538,1151 L 539,1150 L 541,1150 L 542,1149 L 544,1149 L 547,1146 L 547,1139 L 546,1138 L 546,1137 L 543,1134 L 542,1134 L 541,1133 L 540,1133 L 539,1132 L 538,1132 L 537,1131 L 536,1131 L 534,1129 L 533,1129 L 531,1127 L 531,1125 L 534,1122 L 539,1122 L 540,1123 L 541,1123 L 542,1124 L 543,1124 L 545,1122 L 545,1121 L 543,1119 L 542,1119 L 541,1118 Z"/>
<path d="M 509,1118 L 509,1121 L 508,1122 L 509,1123 L 509,1131 L 508,1132 L 509,1133 L 509,1150 L 513,1150 L 513,1118 Z"/>
<path d="M 477,1118 L 477,1150 L 482,1150 L 482,1137 L 483,1136 L 494,1136 L 494,1132 L 483,1132 L 482,1131 L 482,1123 L 483,1122 L 496,1122 L 497,1121 L 496,1120 L 497,1119 L 496,1118 Z"/>
<path d="M 429,1118 L 428,1119 L 427,1119 L 425,1121 L 425,1122 L 424,1123 L 424,1128 L 425,1129 L 425,1130 L 427,1132 L 423,1136 L 423,1137 L 422,1138 L 422,1144 L 423,1145 L 423,1146 L 426,1149 L 427,1149 L 428,1150 L 430,1150 L 431,1151 L 434,1151 L 435,1150 L 438,1150 L 439,1149 L 440,1149 L 441,1148 L 442,1148 L 444,1150 L 450,1150 L 445,1145 L 445,1144 L 447,1142 L 447,1141 L 448,1140 L 448,1137 L 447,1136 L 446,1136 L 445,1135 L 445,1136 L 444,1137 L 444,1138 L 443,1139 L 443,1140 L 442,1141 L 435,1134 L 435,1133 L 436,1132 L 437,1132 L 440,1129 L 440,1128 L 441,1127 L 441,1122 L 438,1119 L 437,1119 L 436,1118 Z"/>
<path d="M 379,1118 L 378,1119 L 377,1119 L 374,1122 L 374,1123 L 373,1124 L 373,1130 L 375,1132 L 376,1132 L 378,1134 L 379,1134 L 380,1135 L 381,1135 L 382,1136 L 383,1136 L 385,1138 L 386,1138 L 388,1140 L 388,1144 L 386,1146 L 384,1146 L 383,1147 L 382,1147 L 381,1146 L 379,1146 L 378,1145 L 377,1145 L 375,1143 L 374,1143 L 372,1145 L 372,1146 L 375,1149 L 376,1149 L 377,1150 L 380,1150 L 381,1151 L 384,1151 L 385,1150 L 388,1150 L 389,1149 L 390,1149 L 393,1146 L 393,1145 L 394,1144 L 394,1140 L 393,1139 L 393,1138 L 389,1134 L 388,1134 L 387,1133 L 386,1133 L 385,1132 L 384,1132 L 383,1131 L 382,1131 L 378,1127 L 378,1124 L 380,1122 L 386,1122 L 387,1123 L 388,1123 L 389,1124 L 390,1124 L 392,1122 L 392,1121 L 391,1120 L 390,1120 L 389,1119 L 388,1119 L 387,1118 Z"/>
<path d="M 341,1118 L 341,1150 L 361,1150 L 361,1146 L 346,1146 L 345,1145 L 345,1137 L 346,1136 L 358,1136 L 358,1132 L 346,1132 L 345,1131 L 345,1123 L 346,1122 L 360,1122 L 360,1118 Z"/>
<path d="M 305,1118 L 305,1122 L 314,1122 L 315,1123 L 315,1150 L 320,1150 L 320,1123 L 321,1122 L 329,1122 L 329,1118 Z"/>
<path d="M 284,1118 L 283,1119 L 283,1121 L 282,1122 L 282,1124 L 281,1125 L 281,1126 L 280,1127 L 280,1129 L 279,1130 L 279,1132 L 278,1133 L 278,1134 L 277,1135 L 277,1137 L 276,1138 L 276,1140 L 275,1141 L 275,1142 L 274,1143 L 274,1145 L 273,1146 L 273,1148 L 272,1149 L 272,1150 L 277,1150 L 277,1148 L 278,1147 L 278,1145 L 281,1142 L 282,1143 L 293,1143 L 294,1144 L 294,1145 L 295,1146 L 295,1148 L 296,1149 L 296,1150 L 301,1150 L 301,1149 L 300,1148 L 300,1146 L 299,1145 L 299,1144 L 298,1143 L 298,1141 L 297,1140 L 297,1138 L 296,1137 L 296,1135 L 295,1134 L 295,1133 L 294,1132 L 294,1130 L 293,1129 L 293,1127 L 292,1126 L 292,1125 L 291,1124 L 291,1122 L 290,1121 L 290,1119 L 289,1118 Z"/>
<path d="M 245,1118 L 245,1150 L 265,1150 L 265,1146 L 251,1146 L 250,1145 L 250,1118 Z"/>
<path d="M 226,1118 L 226,1150 L 230,1150 L 230,1118 Z"/>
<path d="M 192,1118 L 192,1150 L 196,1150 L 196,1140 L 197,1139 L 203,1139 L 204,1138 L 208,1138 L 210,1136 L 211,1136 L 212,1135 L 212,1134 L 213,1133 L 213,1131 L 214,1130 L 214,1127 L 213,1126 L 213,1124 L 212,1123 L 212,1122 L 210,1120 L 209,1120 L 208,1119 L 206,1119 L 205,1118 Z"/>
<path d="M 769,976 L 768,977 L 765,977 L 764,978 L 761,978 L 760,979 L 759,979 L 758,980 L 756,980 L 755,981 L 754,981 L 752,983 L 751,983 L 749,985 L 748,985 L 740,993 L 740,994 L 739,995 L 739,996 L 737,998 L 737,999 L 736,1000 L 736,1002 L 735,1003 L 735,1005 L 734,1006 L 734,1008 L 733,1009 L 733,1015 L 732,1016 L 732,1031 L 733,1032 L 733,1037 L 734,1038 L 734,1040 L 735,1041 L 735,1043 L 736,1044 L 736,1045 L 737,1046 L 737,1047 L 738,1048 L 738,1049 L 740,1051 L 740,1052 L 743,1055 L 743,1056 L 744,1056 L 749,1061 L 750,1061 L 752,1063 L 753,1063 L 754,1064 L 755,1064 L 756,1065 L 757,1065 L 758,1066 L 760,1066 L 761,1067 L 763,1067 L 764,1068 L 767,1068 L 768,1069 L 786,1069 L 787,1068 L 790,1068 L 791,1067 L 793,1067 L 794,1066 L 796,1066 L 797,1065 L 798,1065 L 799,1064 L 800,1064 L 801,1063 L 802,1063 L 803,1062 L 804,1062 L 807,1059 L 808,1059 L 812,1055 L 812,1054 L 815,1051 L 815,1050 L 817,1048 L 817,1047 L 818,1046 L 818,1045 L 819,1044 L 819,1043 L 820,1042 L 820,1039 L 821,1038 L 821,1035 L 822,1034 L 822,1029 L 823,1028 L 823,1015 L 822,1014 L 822,1009 L 821,1008 L 821,1005 L 820,1004 L 820,1002 L 819,1001 L 819,1000 L 818,999 L 818,998 L 817,997 L 817,996 L 815,994 L 815,993 L 811,989 L 811,988 L 810,988 L 806,984 L 805,984 L 803,982 L 802,982 L 801,981 L 800,981 L 799,980 L 798,980 L 797,979 L 795,979 L 794,978 L 792,978 L 791,977 L 786,977 L 785,976 Z"/>
<path d="M 675,976 L 674,977 L 670,977 L 669,978 L 667,978 L 666,979 L 665,979 L 664,980 L 663,980 L 662,981 L 661,981 L 659,983 L 658,983 L 656,985 L 655,985 L 653,987 L 652,987 L 648,991 L 647,990 L 647,986 L 646,985 L 646,977 L 642,977 L 641,978 L 639,978 L 638,979 L 635,979 L 634,980 L 632,980 L 631,981 L 629,981 L 628,982 L 625,982 L 624,983 L 622,983 L 621,984 L 619,984 L 618,985 L 617,985 L 618,986 L 617,987 L 618,987 L 619,988 L 622,988 L 623,989 L 624,989 L 625,990 L 626,990 L 630,994 L 630,1058 L 627,1061 L 626,1061 L 625,1062 L 624,1062 L 623,1063 L 620,1063 L 619,1064 L 617,1064 L 618,1065 L 618,1067 L 660,1067 L 660,1064 L 658,1064 L 657,1063 L 655,1063 L 654,1062 L 652,1062 L 647,1057 L 647,1054 L 646,1053 L 646,1051 L 647,1050 L 646,1049 L 646,999 L 653,992 L 654,992 L 656,990 L 657,990 L 658,989 L 659,989 L 660,988 L 661,988 L 662,987 L 665,987 L 666,986 L 679,986 L 680,987 L 681,987 L 682,988 L 683,988 L 684,989 L 685,989 L 689,993 L 689,994 L 690,995 L 690,996 L 691,997 L 691,999 L 692,1000 L 692,1007 L 693,1008 L 692,1009 L 693,1010 L 693,1052 L 692,1053 L 692,1057 L 691,1058 L 691,1059 L 688,1062 L 686,1062 L 685,1063 L 682,1063 L 681,1064 L 680,1064 L 680,1067 L 721,1067 L 721,1064 L 720,1064 L 719,1063 L 716,1063 L 715,1062 L 714,1062 L 713,1061 L 712,1061 L 710,1059 L 710,1058 L 709,1057 L 709,1050 L 708,1049 L 709,1048 L 708,1047 L 709,1046 L 709,1045 L 708,1044 L 709,1043 L 709,1042 L 708,1041 L 708,1040 L 709,1039 L 709,1035 L 708,1034 L 709,1033 L 709,1030 L 708,1029 L 709,1028 L 709,1024 L 708,1023 L 708,1017 L 709,1016 L 709,1013 L 708,1012 L 708,1011 L 709,1010 L 708,1009 L 708,999 L 707,998 L 707,995 L 706,994 L 706,992 L 705,991 L 705,990 L 704,989 L 704,988 L 703,987 L 703,986 L 698,981 L 697,981 L 695,979 L 694,979 L 693,978 L 691,978 L 690,977 L 685,977 L 684,976 Z"/>
<path d="M 562,976 L 561,977 L 557,977 L 556,978 L 554,978 L 553,979 L 552,979 L 551,980 L 550,980 L 549,981 L 548,981 L 547,982 L 546,982 L 545,983 L 544,983 L 535,992 L 535,993 L 533,995 L 533,996 L 532,997 L 532,998 L 530,1000 L 530,1002 L 529,1003 L 529,1004 L 528,1005 L 528,1008 L 527,1009 L 527,1013 L 526,1014 L 526,1035 L 527,1036 L 527,1040 L 528,1041 L 528,1043 L 529,1044 L 529,1046 L 530,1047 L 530,1048 L 531,1049 L 531,1050 L 532,1051 L 532,1052 L 533,1053 L 533,1054 L 540,1061 L 541,1061 L 543,1063 L 544,1063 L 545,1064 L 546,1064 L 547,1065 L 548,1065 L 549,1066 L 551,1066 L 552,1067 L 555,1067 L 556,1068 L 561,1068 L 562,1069 L 572,1069 L 573,1068 L 579,1068 L 580,1067 L 583,1067 L 584,1066 L 587,1066 L 588,1065 L 589,1065 L 590,1064 L 591,1064 L 592,1063 L 593,1063 L 594,1062 L 595,1062 L 597,1060 L 598,1060 L 604,1054 L 604,1053 L 605,1052 L 605,1051 L 602,1048 L 602,1047 L 596,1053 L 595,1053 L 594,1054 L 593,1054 L 591,1056 L 590,1056 L 589,1057 L 588,1057 L 587,1058 L 585,1058 L 584,1059 L 580,1059 L 579,1060 L 565,1060 L 564,1059 L 562,1059 L 561,1058 L 560,1058 L 559,1057 L 558,1057 L 557,1056 L 556,1056 L 549,1049 L 549,1048 L 548,1047 L 548,1046 L 547,1045 L 547,1044 L 546,1043 L 546,1042 L 545,1041 L 545,1038 L 544,1037 L 544,1033 L 543,1032 L 543,1018 L 544,1017 L 606,1017 L 606,1010 L 605,1009 L 605,1004 L 604,1003 L 604,1000 L 603,999 L 603,998 L 602,997 L 602,995 L 600,993 L 600,992 L 598,990 L 598,989 L 591,982 L 590,982 L 589,981 L 588,981 L 587,980 L 586,980 L 585,979 L 584,979 L 583,978 L 580,978 L 579,977 L 575,977 L 574,976 Z"/>
<path d="M 501,976 L 500,977 L 498,977 L 497,978 L 496,978 L 495,979 L 494,979 L 493,980 L 492,980 L 490,982 L 489,982 L 485,986 L 485,987 L 482,990 L 482,991 L 480,993 L 479,992 L 479,986 L 478,985 L 478,977 L 475,977 L 474,978 L 471,978 L 470,979 L 468,979 L 467,980 L 464,980 L 463,981 L 461,981 L 460,982 L 457,982 L 456,983 L 454,983 L 453,984 L 450,984 L 450,987 L 451,987 L 452,988 L 454,988 L 455,989 L 457,989 L 459,991 L 460,991 L 461,992 L 461,993 L 462,994 L 462,996 L 463,997 L 463,1056 L 462,1057 L 462,1058 L 461,1059 L 461,1060 L 460,1061 L 459,1061 L 458,1062 L 457,1062 L 456,1063 L 451,1063 L 450,1064 L 448,1064 L 448,1067 L 494,1067 L 494,1065 L 495,1064 L 493,1064 L 492,1063 L 488,1063 L 487,1062 L 484,1062 L 479,1057 L 479,1005 L 480,1004 L 480,1001 L 481,1000 L 481,999 L 482,998 L 482,997 L 484,995 L 484,994 L 487,991 L 488,991 L 490,989 L 491,989 L 492,988 L 494,988 L 495,987 L 499,987 L 500,988 L 501,988 L 504,991 L 504,992 L 507,995 L 508,995 L 509,996 L 510,996 L 511,995 L 515,995 L 518,992 L 518,991 L 519,990 L 519,989 L 520,988 L 520,984 L 519,983 L 519,982 L 518,981 L 518,980 L 517,979 L 516,979 L 514,977 L 512,977 L 511,976 Z"/>
<path d="M 383,976 L 382,977 L 379,977 L 378,978 L 375,978 L 374,979 L 373,979 L 372,980 L 371,980 L 370,981 L 369,981 L 367,983 L 366,983 L 364,985 L 363,985 L 355,993 L 355,994 L 353,996 L 353,997 L 352,998 L 352,999 L 351,1000 L 351,1001 L 350,1002 L 350,1004 L 349,1005 L 349,1007 L 348,1008 L 348,1013 L 347,1014 L 347,1033 L 348,1034 L 348,1037 L 349,1038 L 349,1041 L 350,1042 L 350,1044 L 351,1045 L 351,1046 L 353,1048 L 353,1049 L 354,1050 L 354,1051 L 356,1053 L 356,1054 L 359,1057 L 360,1057 L 361,1058 L 361,1059 L 362,1059 L 364,1061 L 365,1061 L 367,1063 L 368,1063 L 369,1064 L 370,1064 L 371,1065 L 372,1065 L 373,1066 L 375,1066 L 376,1067 L 378,1067 L 379,1068 L 383,1068 L 384,1069 L 400,1069 L 401,1068 L 405,1068 L 406,1067 L 408,1067 L 409,1066 L 411,1066 L 412,1065 L 413,1065 L 414,1064 L 415,1064 L 417,1062 L 418,1062 L 419,1061 L 420,1061 L 424,1057 L 425,1057 L 427,1055 L 427,1054 L 430,1051 L 430,1050 L 431,1049 L 431,1048 L 433,1046 L 433,1045 L 434,1044 L 434,1042 L 435,1041 L 435,1039 L 436,1038 L 436,1034 L 437,1033 L 437,1011 L 436,1010 L 436,1006 L 435,1005 L 435,1003 L 434,1002 L 434,1001 L 433,1000 L 433,999 L 432,998 L 432,997 L 431,996 L 431,995 L 429,993 L 429,992 L 422,985 L 421,985 L 419,983 L 418,983 L 417,982 L 416,982 L 415,981 L 414,981 L 413,980 L 412,980 L 411,979 L 409,979 L 408,978 L 406,978 L 405,977 L 402,977 L 401,976 Z"/>
<path d="M 183,940 L 183,943 L 184,944 L 186,944 L 187,945 L 189,945 L 190,946 L 191,946 L 192,947 L 193,947 L 194,948 L 195,948 L 197,950 L 197,981 L 196,982 L 196,1011 L 195,1012 L 196,1013 L 195,1014 L 195,1042 L 194,1043 L 194,1053 L 193,1054 L 193,1055 L 187,1061 L 186,1061 L 185,1062 L 184,1062 L 183,1063 L 180,1063 L 180,1067 L 214,1067 L 214,1065 L 215,1064 L 213,1064 L 212,1063 L 209,1063 L 207,1061 L 206,1061 L 203,1058 L 203,1057 L 202,1056 L 202,1055 L 201,1054 L 201,1013 L 202,1012 L 202,975 L 203,974 L 203,960 L 204,959 L 205,960 L 205,961 L 206,962 L 206,963 L 207,964 L 207,965 L 208,966 L 208,967 L 209,968 L 209,969 L 210,970 L 210,971 L 211,972 L 211,973 L 212,974 L 212,975 L 213,976 L 213,977 L 214,978 L 214,979 L 215,980 L 215,981 L 216,982 L 216,983 L 217,984 L 217,985 L 218,986 L 218,987 L 219,988 L 219,989 L 220,990 L 220,991 L 221,992 L 221,993 L 222,994 L 222,995 L 223,996 L 223,997 L 224,998 L 224,999 L 225,1000 L 225,1001 L 226,1002 L 226,1003 L 227,1004 L 227,1005 L 228,1006 L 228,1007 L 229,1008 L 229,1009 L 230,1010 L 230,1011 L 231,1012 L 231,1013 L 232,1014 L 232,1015 L 233,1016 L 233,1017 L 234,1018 L 234,1019 L 235,1020 L 235,1021 L 236,1022 L 236,1023 L 237,1024 L 237,1025 L 238,1026 L 238,1027 L 239,1028 L 239,1029 L 240,1030 L 240,1031 L 241,1032 L 241,1033 L 242,1034 L 242,1035 L 243,1036 L 243,1038 L 245,1040 L 245,1041 L 246,1042 L 246,1043 L 247,1044 L 247,1045 L 248,1046 L 248,1047 L 249,1048 L 249,1049 L 250,1050 L 250,1051 L 251,1052 L 251,1053 L 252,1054 L 252,1055 L 253,1056 L 253,1057 L 254,1058 L 254,1059 L 255,1059 L 255,1058 L 256,1057 L 256,1055 L 257,1054 L 257,1053 L 258,1052 L 258,1051 L 259,1050 L 259,1049 L 260,1048 L 260,1047 L 261,1046 L 261,1045 L 262,1044 L 262,1043 L 263,1042 L 263,1040 L 264,1039 L 264,1038 L 265,1037 L 265,1036 L 266,1035 L 266,1034 L 267,1033 L 267,1031 L 268,1030 L 268,1029 L 269,1028 L 269,1027 L 270,1026 L 270,1025 L 271,1024 L 271,1023 L 272,1022 L 272,1021 L 273,1020 L 273,1019 L 274,1018 L 274,1017 L 275,1016 L 275,1014 L 276,1013 L 276,1012 L 277,1011 L 277,1010 L 278,1009 L 278,1008 L 279,1007 L 279,1006 L 280,1005 L 280,1004 L 281,1003 L 281,1002 L 282,1001 L 282,1000 L 283,999 L 283,998 L 284,997 L 284,996 L 285,995 L 285,994 L 286,993 L 286,992 L 287,991 L 287,989 L 289,987 L 289,985 L 290,984 L 290,983 L 291,982 L 291,981 L 292,980 L 292,979 L 293,978 L 293,977 L 294,976 L 294,975 L 295,974 L 295,973 L 296,972 L 296,971 L 297,970 L 297,969 L 298,968 L 298,967 L 299,966 L 299,965 L 300,964 L 300,963 L 301,962 L 301,961 L 302,960 L 303,961 L 303,970 L 304,971 L 304,986 L 305,987 L 305,1014 L 306,1015 L 305,1016 L 305,1018 L 306,1019 L 306,1056 L 305,1057 L 305,1058 L 301,1062 L 299,1062 L 298,1063 L 294,1063 L 293,1064 L 292,1064 L 292,1067 L 337,1067 L 337,1063 L 333,1063 L 332,1062 L 331,1062 L 330,1061 L 329,1061 L 327,1059 L 327,1058 L 326,1057 L 326,1055 L 325,1054 L 325,1031 L 324,1030 L 324,1012 L 323,1011 L 323,992 L 322,991 L 322,971 L 321,970 L 321,951 L 322,950 L 322,949 L 324,947 L 325,947 L 327,945 L 329,945 L 330,944 L 333,944 L 334,943 L 334,940 L 317,940 L 316,941 L 314,941 L 313,940 L 304,940 L 304,941 L 303,942 L 303,943 L 302,944 L 302,946 L 301,947 L 301,948 L 300,949 L 300,950 L 299,951 L 299,952 L 298,953 L 298,954 L 297,955 L 297,956 L 296,957 L 296,958 L 295,959 L 295,960 L 294,961 L 294,963 L 293,964 L 293,965 L 292,966 L 292,967 L 291,968 L 291,969 L 290,970 L 290,971 L 289,972 L 289,973 L 288,974 L 288,975 L 287,976 L 287,977 L 286,978 L 286,980 L 285,981 L 285,982 L 284,983 L 284,984 L 283,985 L 283,986 L 282,987 L 282,988 L 281,989 L 281,990 L 280,991 L 280,992 L 279,993 L 279,994 L 278,995 L 278,996 L 277,997 L 277,998 L 276,999 L 276,1001 L 275,1002 L 275,1003 L 274,1004 L 274,1005 L 273,1006 L 273,1007 L 272,1008 L 272,1009 L 271,1010 L 271,1011 L 270,1012 L 270,1013 L 269,1014 L 269,1015 L 268,1016 L 268,1017 L 267,1018 L 267,1020 L 266,1021 L 266,1022 L 265,1023 L 265,1024 L 264,1025 L 264,1026 L 263,1027 L 263,1028 L 262,1029 L 262,1030 L 261,1031 L 260,1030 L 260,1029 L 259,1028 L 259,1027 L 258,1026 L 258,1025 L 257,1024 L 257,1023 L 256,1022 L 256,1021 L 255,1020 L 255,1019 L 254,1018 L 254,1017 L 253,1016 L 253,1015 L 252,1014 L 252,1013 L 251,1012 L 251,1011 L 250,1010 L 250,1009 L 249,1008 L 249,1007 L 248,1006 L 248,1005 L 247,1004 L 247,1003 L 246,1002 L 246,1001 L 245,1000 L 245,999 L 244,998 L 244,997 L 243,996 L 243,995 L 242,994 L 242,993 L 241,992 L 241,991 L 240,990 L 240,989 L 239,988 L 239,987 L 238,986 L 238,985 L 237,984 L 237,983 L 236,982 L 236,981 L 235,980 L 235,979 L 234,978 L 234,977 L 233,976 L 233,975 L 232,974 L 232,973 L 231,972 L 231,971 L 230,970 L 230,969 L 229,968 L 229,967 L 228,966 L 228,965 L 227,964 L 227,963 L 226,962 L 226,961 L 225,960 L 225,959 L 224,958 L 224,957 L 223,956 L 223,955 L 222,954 L 222,953 L 221,952 L 221,951 L 220,950 L 220,949 L 219,948 L 219,947 L 218,946 L 218,945 L 217,944 L 217,943 L 216,942 L 216,941 L 215,940 Z"/>
<path d="M 511,833 L 510,834 L 506,834 L 505,835 L 502,835 L 501,836 L 498,836 L 497,837 L 493,837 L 492,838 L 488,838 L 487,839 L 485,839 L 485,842 L 487,842 L 488,843 L 490,843 L 491,844 L 492,844 L 493,845 L 494,845 L 497,848 L 497,852 L 498,853 L 498,906 L 499,907 L 499,909 L 500,910 L 500,911 L 501,912 L 501,914 L 503,916 L 503,917 L 508,922 L 509,922 L 510,923 L 511,923 L 512,924 L 513,924 L 514,925 L 516,925 L 517,926 L 522,926 L 523,927 L 529,927 L 530,926 L 536,926 L 537,925 L 539,925 L 540,924 L 542,924 L 543,923 L 544,923 L 546,921 L 547,921 L 550,918 L 551,918 L 557,912 L 557,911 L 560,908 L 560,907 L 561,906 L 562,907 L 562,917 L 561,918 L 561,927 L 563,927 L 564,926 L 567,926 L 568,925 L 571,925 L 572,924 L 575,924 L 576,923 L 579,923 L 580,922 L 582,922 L 583,921 L 586,921 L 587,920 L 589,920 L 589,917 L 588,916 L 584,916 L 583,915 L 582,915 L 581,914 L 580,914 L 579,913 L 579,912 L 578,911 L 578,838 L 579,837 L 578,836 L 579,835 L 579,833 L 577,833 L 576,834 L 572,834 L 571,835 L 567,835 L 566,836 L 562,836 L 561,837 L 557,837 L 556,838 L 551,838 L 551,842 L 553,842 L 554,843 L 555,843 L 556,844 L 557,844 L 559,846 L 560,846 L 561,847 L 561,848 L 562,849 L 562,878 L 563,879 L 563,881 L 562,882 L 563,883 L 563,884 L 562,885 L 562,897 L 561,898 L 561,899 L 559,901 L 559,902 L 556,905 L 556,906 L 551,911 L 550,911 L 548,913 L 547,913 L 546,914 L 545,914 L 544,915 L 542,915 L 541,916 L 538,916 L 537,917 L 531,917 L 530,916 L 527,916 L 526,915 L 524,915 L 523,914 L 522,914 L 520,912 L 519,912 L 517,910 L 517,909 L 515,907 L 515,906 L 514,905 L 514,901 L 513,900 L 513,847 L 514,846 L 514,833 Z"/>
<path d="M 689,832 L 688,833 L 684,833 L 683,834 L 680,834 L 679,835 L 677,835 L 676,836 L 675,836 L 674,837 L 673,837 L 672,838 L 671,838 L 668,841 L 667,841 L 665,843 L 665,844 L 663,846 L 663,848 L 662,849 L 662,855 L 663,856 L 663,857 L 666,860 L 667,860 L 668,861 L 674,861 L 675,860 L 678,860 L 679,859 L 678,858 L 678,853 L 679,852 L 679,849 L 680,848 L 680,847 L 682,845 L 682,844 L 684,842 L 685,842 L 687,840 L 688,840 L 689,839 L 690,839 L 691,838 L 693,838 L 694,837 L 702,837 L 703,838 L 705,838 L 712,845 L 712,846 L 713,847 L 713,850 L 714,851 L 714,856 L 715,857 L 715,867 L 713,869 L 710,869 L 709,870 L 707,870 L 706,871 L 704,871 L 703,872 L 700,872 L 699,873 L 697,873 L 696,874 L 695,874 L 694,875 L 692,875 L 691,876 L 689,876 L 688,877 L 687,877 L 686,878 L 684,878 L 683,879 L 682,879 L 681,880 L 679,880 L 678,881 L 677,881 L 676,882 L 675,882 L 674,883 L 673,883 L 672,884 L 671,884 L 669,886 L 668,886 L 660,894 L 660,895 L 659,896 L 659,898 L 658,899 L 658,901 L 657,902 L 657,909 L 658,910 L 658,913 L 659,914 L 659,915 L 662,918 L 662,919 L 663,920 L 664,920 L 667,923 L 668,923 L 669,924 L 670,924 L 671,925 L 673,925 L 674,926 L 689,926 L 690,925 L 692,925 L 693,924 L 695,924 L 696,923 L 697,923 L 698,922 L 699,922 L 701,920 L 702,920 L 703,919 L 704,919 L 707,916 L 708,916 L 713,911 L 713,910 L 714,909 L 715,909 L 716,910 L 716,916 L 717,917 L 717,919 L 718,920 L 718,921 L 719,922 L 719,923 L 721,925 L 722,925 L 723,926 L 724,926 L 725,927 L 733,927 L 734,926 L 736,926 L 737,925 L 738,925 L 740,923 L 741,923 L 744,920 L 744,919 L 746,917 L 744,915 L 743,915 L 742,916 L 741,916 L 740,917 L 736,917 L 733,914 L 733,912 L 732,911 L 732,904 L 731,903 L 731,857 L 730,856 L 730,852 L 729,851 L 729,850 L 728,849 L 728,847 L 726,845 L 726,844 L 720,838 L 719,838 L 718,837 L 717,837 L 716,836 L 715,836 L 714,835 L 713,835 L 712,834 L 709,834 L 708,833 L 704,833 L 703,832 Z"/>
<path d="M 422,832 L 421,833 L 417,833 L 416,834 L 413,834 L 412,835 L 411,835 L 410,836 L 408,836 L 407,837 L 406,837 L 404,839 L 403,839 L 397,845 L 397,846 L 396,847 L 396,849 L 395,850 L 395,854 L 396,855 L 396,857 L 399,860 L 400,860 L 401,861 L 408,861 L 409,860 L 412,860 L 412,850 L 413,849 L 413,848 L 414,847 L 414,846 L 416,844 L 416,843 L 417,842 L 418,842 L 420,840 L 421,840 L 422,839 L 423,839 L 424,838 L 426,838 L 427,837 L 435,837 L 436,838 L 438,838 L 440,840 L 441,840 L 444,843 L 444,844 L 445,845 L 445,846 L 446,847 L 446,848 L 447,849 L 447,854 L 448,855 L 448,866 L 449,867 L 448,868 L 447,868 L 446,869 L 443,869 L 442,870 L 440,870 L 439,871 L 437,871 L 436,872 L 433,872 L 432,873 L 431,873 L 430,874 L 427,874 L 426,875 L 425,875 L 424,876 L 422,876 L 421,877 L 419,877 L 418,878 L 417,878 L 416,879 L 414,879 L 413,880 L 412,880 L 411,881 L 410,881 L 409,882 L 408,882 L 407,883 L 406,883 L 404,885 L 403,885 L 402,886 L 401,886 L 394,893 L 394,894 L 393,895 L 393,896 L 392,897 L 392,899 L 391,900 L 391,911 L 392,912 L 392,914 L 393,915 L 393,916 L 399,922 L 400,922 L 401,923 L 402,923 L 403,924 L 404,924 L 405,925 L 408,925 L 409,926 L 422,926 L 423,925 L 425,925 L 426,924 L 428,924 L 429,923 L 430,923 L 431,922 L 432,922 L 433,921 L 434,921 L 436,919 L 437,919 L 439,917 L 440,917 L 447,910 L 447,909 L 448,908 L 449,909 L 449,913 L 450,914 L 450,918 L 451,919 L 451,921 L 455,925 L 456,925 L 457,926 L 458,926 L 459,927 L 467,927 L 468,926 L 470,926 L 471,925 L 472,925 L 480,917 L 479,917 L 478,916 L 478,915 L 476,915 L 474,917 L 469,917 L 467,915 L 467,914 L 466,913 L 466,909 L 465,908 L 465,882 L 464,881 L 465,880 L 465,870 L 464,869 L 465,868 L 465,867 L 464,866 L 464,855 L 463,854 L 463,851 L 462,850 L 462,848 L 461,847 L 461,846 L 459,844 L 459,843 L 454,838 L 453,838 L 452,837 L 451,837 L 450,836 L 449,836 L 448,835 L 447,835 L 446,834 L 443,834 L 442,833 L 438,833 L 437,832 Z"/>
<path d="M 281,795 L 281,798 L 282,798 L 283,799 L 284,799 L 285,800 L 286,800 L 287,801 L 288,801 L 289,802 L 290,802 L 293,805 L 293,806 L 294,807 L 293,808 L 293,809 L 294,810 L 294,829 L 293,830 L 294,831 L 294,832 L 293,833 L 294,834 L 294,841 L 293,842 L 294,843 L 293,844 L 294,845 L 294,849 L 293,850 L 294,851 L 293,852 L 294,853 L 294,854 L 293,855 L 293,857 L 294,858 L 294,859 L 293,860 L 294,861 L 294,863 L 293,864 L 293,865 L 294,866 L 293,867 L 293,869 L 294,870 L 294,874 L 293,875 L 293,876 L 294,877 L 294,878 L 293,879 L 294,880 L 294,881 L 293,882 L 294,883 L 293,884 L 293,892 L 294,893 L 294,894 L 293,895 L 293,909 L 294,910 L 293,911 L 293,916 L 290,919 L 289,919 L 288,920 L 287,920 L 286,921 L 281,921 L 280,922 L 281,923 L 281,924 L 280,925 L 299,925 L 300,924 L 301,925 L 302,924 L 303,924 L 304,925 L 325,925 L 325,924 L 326,923 L 326,922 L 325,921 L 320,921 L 319,920 L 318,920 L 317,919 L 316,919 L 313,916 L 313,915 L 312,914 L 312,871 L 313,870 L 340,870 L 341,869 L 346,869 L 347,868 L 350,868 L 351,867 L 353,867 L 354,866 L 356,866 L 357,865 L 359,865 L 360,864 L 361,864 L 363,862 L 364,862 L 366,860 L 367,860 L 374,853 L 374,852 L 376,850 L 376,849 L 377,848 L 377,847 L 378,846 L 378,844 L 379,843 L 379,841 L 380,840 L 380,836 L 381,835 L 381,824 L 380,823 L 380,819 L 379,818 L 379,816 L 378,815 L 378,814 L 377,813 L 377,812 L 376,811 L 376,810 L 371,805 L 370,805 L 367,802 L 366,802 L 365,801 L 363,801 L 362,800 L 361,800 L 360,799 L 358,799 L 357,798 L 354,798 L 353,797 L 350,797 L 349,796 L 345,796 L 344,795 Z"/>
<path d="M 629,791 L 628,792 L 626,792 L 625,793 L 623,793 L 622,794 L 620,794 L 619,795 L 617,795 L 616,796 L 614,796 L 613,797 L 612,797 L 611,798 L 610,798 L 609,799 L 606,799 L 605,800 L 604,800 L 604,803 L 605,803 L 606,804 L 607,804 L 608,805 L 609,805 L 610,806 L 611,806 L 615,810 L 615,812 L 616,813 L 616,819 L 615,820 L 616,821 L 616,912 L 615,913 L 615,915 L 614,916 L 614,917 L 612,919 L 611,919 L 610,920 L 608,920 L 607,921 L 604,921 L 604,925 L 613,925 L 614,924 L 643,924 L 644,925 L 645,924 L 645,921 L 643,921 L 642,920 L 639,920 L 638,919 L 637,919 L 636,918 L 635,918 L 632,915 L 632,912 L 631,911 L 631,803 L 632,802 L 632,791 Z"/>
<path d="M 458,533 L 458,534 L 466,542 L 467,542 L 469,544 L 470,544 L 472,546 L 473,546 L 475,548 L 476,548 L 477,549 L 478,549 L 479,550 L 481,550 L 482,551 L 483,551 L 484,552 L 485,552 L 486,553 L 487,553 L 488,554 L 490,554 L 491,555 L 492,555 L 493,556 L 495,556 L 496,557 L 498,557 L 499,558 L 499,557 L 498,556 L 498,555 L 497,554 L 497,553 L 496,552 L 496,551 L 494,549 L 494,548 L 491,545 L 491,544 L 488,541 L 487,541 L 485,539 L 484,539 L 483,538 L 482,538 L 481,537 L 479,537 L 478,536 L 475,536 L 474,535 L 470,535 L 469,534 L 464,534 L 463,533 Z"/>
<path d="M 420,512 L 420,513 L 425,518 L 425,519 L 435,529 L 435,530 L 436,531 L 436,532 L 434,534 L 433,534 L 431,536 L 430,536 L 428,538 L 427,538 L 425,540 L 424,540 L 422,542 L 421,542 L 420,543 L 419,543 L 418,544 L 417,544 L 416,545 L 415,545 L 414,546 L 413,546 L 412,547 L 411,547 L 410,548 L 409,548 L 408,549 L 407,549 L 406,550 L 405,550 L 404,551 L 403,551 L 402,552 L 401,552 L 400,553 L 398,553 L 397,554 L 394,554 L 394,555 L 398,559 L 399,559 L 402,562 L 403,562 L 405,564 L 406,564 L 407,565 L 408,565 L 409,566 L 410,566 L 411,567 L 413,567 L 414,568 L 416,568 L 417,569 L 423,569 L 424,570 L 431,570 L 432,569 L 435,569 L 436,568 L 439,568 L 440,567 L 444,567 L 445,566 L 455,566 L 456,567 L 458,567 L 459,568 L 460,568 L 461,569 L 462,569 L 463,570 L 464,570 L 465,571 L 466,571 L 467,572 L 468,572 L 469,573 L 470,573 L 471,574 L 472,574 L 474,576 L 476,576 L 478,578 L 479,578 L 480,579 L 481,579 L 483,581 L 484,581 L 485,582 L 486,582 L 487,583 L 488,583 L 490,585 L 491,585 L 493,587 L 494,587 L 495,588 L 496,588 L 497,589 L 498,589 L 499,590 L 500,590 L 502,592 L 503,592 L 504,593 L 505,593 L 506,594 L 507,594 L 508,595 L 509,595 L 510,596 L 511,596 L 512,597 L 513,597 L 514,598 L 515,598 L 516,599 L 517,599 L 518,600 L 520,600 L 521,601 L 522,601 L 523,602 L 524,602 L 525,603 L 527,603 L 528,604 L 530,604 L 531,605 L 532,605 L 533,606 L 535,606 L 536,607 L 539,607 L 540,608 L 542,608 L 543,609 L 545,609 L 546,610 L 548,610 L 549,611 L 551,611 L 552,612 L 554,612 L 555,613 L 556,613 L 557,614 L 559,614 L 560,615 L 561,615 L 562,616 L 564,616 L 565,617 L 569,617 L 570,618 L 584,618 L 585,619 L 609,619 L 610,620 L 634,620 L 635,621 L 648,621 L 649,622 L 664,622 L 665,621 L 678,621 L 679,620 L 685,620 L 686,619 L 691,619 L 692,618 L 697,618 L 698,617 L 700,617 L 701,616 L 703,616 L 704,615 L 705,615 L 706,616 L 704,618 L 703,618 L 702,619 L 701,619 L 700,620 L 698,620 L 697,621 L 696,621 L 695,622 L 692,622 L 691,623 L 690,623 L 690,624 L 691,624 L 694,627 L 695,627 L 697,629 L 698,629 L 700,631 L 701,631 L 702,632 L 703,632 L 704,633 L 705,633 L 706,634 L 709,634 L 710,635 L 714,635 L 715,636 L 714,637 L 703,637 L 702,636 L 699,636 L 698,635 L 696,635 L 695,634 L 694,634 L 692,632 L 691,632 L 687,628 L 686,628 L 685,627 L 685,626 L 684,625 L 683,625 L 682,626 L 674,626 L 673,627 L 641,627 L 640,626 L 639,627 L 638,626 L 620,626 L 620,632 L 619,633 L 619,638 L 618,639 L 618,642 L 617,643 L 617,644 L 616,645 L 616,646 L 611,651 L 610,651 L 607,654 L 606,654 L 604,656 L 603,656 L 602,657 L 601,657 L 600,658 L 599,658 L 597,660 L 596,660 L 594,662 L 593,662 L 590,665 L 589,665 L 587,667 L 586,667 L 584,669 L 583,669 L 582,670 L 581,670 L 581,671 L 582,672 L 582,673 L 583,674 L 583,676 L 584,677 L 584,679 L 585,680 L 585,682 L 586,683 L 586,685 L 587,686 L 587,688 L 588,689 L 588,691 L 589,692 L 589,695 L 590,696 L 590,699 L 591,700 L 591,705 L 592,706 L 592,707 L 591,708 L 589,706 L 589,704 L 588,703 L 588,701 L 587,700 L 587,699 L 586,698 L 586,697 L 585,696 L 585,695 L 584,694 L 584,692 L 583,691 L 583,690 L 582,689 L 582,688 L 581,687 L 581,685 L 580,684 L 580,683 L 579,682 L 579,681 L 578,680 L 578,679 L 577,678 L 577,677 L 576,676 L 576,675 L 575,674 L 575,673 L 574,672 L 574,671 L 572,669 L 572,668 L 571,667 L 571,666 L 570,665 L 570,664 L 568,662 L 568,661 L 567,660 L 567,659 L 565,657 L 565,656 L 563,654 L 563,653 L 561,651 L 561,650 L 560,649 L 560,648 L 558,646 L 558,645 L 557,644 L 557,643 L 555,641 L 555,640 L 553,638 L 553,637 L 551,635 L 551,634 L 549,632 L 549,631 L 547,629 L 547,628 L 545,626 L 545,625 L 543,623 L 543,622 L 541,620 L 541,619 L 538,616 L 538,615 L 536,613 L 535,613 L 534,612 L 532,612 L 531,611 L 529,611 L 528,610 L 526,610 L 525,609 L 524,609 L 523,608 L 522,608 L 521,607 L 520,607 L 519,606 L 517,606 L 516,605 L 515,605 L 514,604 L 513,604 L 512,603 L 511,603 L 510,602 L 509,602 L 508,601 L 507,601 L 506,600 L 505,600 L 504,599 L 503,599 L 502,598 L 501,598 L 499,596 L 498,596 L 497,595 L 496,595 L 494,593 L 493,593 L 492,592 L 491,592 L 490,591 L 489,591 L 487,589 L 486,589 L 485,588 L 484,588 L 482,586 L 481,586 L 480,585 L 479,585 L 478,584 L 477,584 L 475,582 L 474,582 L 473,581 L 472,581 L 471,580 L 470,580 L 469,579 L 468,579 L 467,578 L 466,578 L 464,576 L 463,576 L 462,575 L 461,575 L 460,574 L 459,574 L 458,573 L 457,573 L 456,572 L 455,572 L 454,571 L 440,571 L 439,572 L 434,572 L 433,573 L 430,573 L 429,574 L 427,574 L 426,575 L 424,575 L 423,576 L 421,576 L 420,577 L 419,577 L 418,578 L 417,578 L 416,579 L 415,579 L 414,580 L 413,580 L 409,584 L 408,584 L 391,601 L 390,601 L 390,602 L 389,603 L 388,603 L 383,608 L 383,609 L 361,631 L 360,631 L 351,640 L 350,640 L 346,644 L 345,644 L 342,647 L 341,647 L 338,650 L 337,650 L 335,652 L 334,652 L 332,654 L 331,654 L 329,656 L 328,656 L 326,658 L 325,658 L 323,660 L 322,660 L 320,662 L 319,662 L 317,664 L 316,664 L 314,666 L 313,666 L 311,668 L 310,668 L 307,671 L 306,671 L 302,675 L 301,675 L 295,681 L 294,681 L 288,687 L 288,688 L 282,694 L 282,695 L 276,701 L 276,702 L 272,706 L 271,706 L 264,713 L 263,713 L 260,716 L 259,716 L 257,718 L 256,718 L 255,719 L 254,719 L 252,721 L 250,721 L 249,722 L 249,723 L 248,724 L 248,727 L 249,728 L 249,729 L 250,730 L 251,730 L 252,731 L 254,731 L 255,732 L 261,732 L 262,731 L 265,731 L 266,730 L 268,730 L 269,729 L 270,729 L 271,728 L 272,728 L 273,727 L 274,727 L 275,726 L 276,726 L 279,723 L 280,723 L 283,720 L 284,720 L 286,718 L 287,718 L 288,717 L 289,717 L 290,716 L 292,716 L 293,715 L 294,715 L 295,714 L 297,714 L 298,713 L 299,713 L 300,712 L 303,712 L 304,711 L 308,711 L 309,710 L 318,710 L 319,711 L 323,711 L 324,712 L 336,712 L 337,711 L 339,711 L 340,710 L 341,710 L 342,709 L 342,708 L 343,707 L 343,705 L 344,704 L 344,691 L 345,690 L 345,687 L 346,686 L 346,685 L 349,682 L 349,681 L 352,678 L 353,678 L 357,674 L 358,674 L 360,672 L 361,672 L 363,670 L 364,670 L 366,668 L 367,668 L 368,667 L 369,667 L 371,665 L 372,665 L 373,664 L 374,664 L 375,663 L 376,663 L 377,662 L 378,662 L 379,661 L 380,661 L 381,660 L 382,660 L 383,659 L 384,659 L 385,658 L 387,658 L 388,657 L 390,657 L 391,656 L 392,656 L 393,655 L 395,655 L 396,654 L 398,654 L 399,653 L 401,653 L 402,652 L 403,652 L 404,651 L 405,651 L 406,650 L 407,650 L 408,649 L 409,649 L 410,648 L 411,648 L 412,647 L 413,647 L 414,646 L 415,646 L 417,644 L 418,644 L 419,643 L 420,643 L 422,641 L 423,641 L 426,638 L 427,638 L 430,635 L 431,635 L 438,628 L 439,628 L 445,622 L 445,621 L 448,618 L 448,617 L 449,616 L 449,615 L 450,614 L 450,613 L 451,612 L 451,609 L 452,608 L 452,605 L 453,604 L 453,595 L 452,594 L 452,593 L 451,592 L 451,591 L 452,590 L 456,594 L 456,595 L 457,596 L 457,597 L 459,599 L 459,600 L 460,601 L 460,603 L 461,604 L 461,606 L 462,607 L 462,609 L 463,610 L 463,613 L 464,614 L 464,616 L 465,617 L 465,619 L 466,620 L 466,621 L 467,622 L 467,623 L 468,624 L 468,626 L 469,627 L 469,628 L 470,629 L 470,631 L 471,632 L 471,633 L 472,634 L 472,635 L 473,636 L 473,638 L 474,639 L 474,641 L 475,642 L 475,644 L 476,645 L 476,646 L 477,647 L 477,649 L 478,650 L 478,653 L 479,654 L 479,656 L 480,657 L 480,659 L 481,660 L 481,662 L 482,663 L 482,665 L 483,666 L 483,668 L 484,669 L 484,671 L 485,672 L 485,674 L 486,675 L 486,677 L 487,678 L 487,680 L 488,681 L 488,683 L 489,684 L 489,685 L 490,686 L 490,688 L 491,689 L 491,691 L 492,692 L 492,693 L 493,694 L 493,695 L 494,696 L 494,698 L 495,699 L 495,700 L 496,701 L 496,703 L 497,704 L 497,705 L 498,706 L 498,707 L 499,708 L 499,709 L 500,710 L 500,711 L 501,712 L 501,714 L 502,715 L 502,716 L 503,717 L 503,719 L 504,720 L 504,721 L 505,722 L 505,723 L 506,724 L 506,726 L 507,727 L 507,728 L 508,729 L 508,730 L 509,731 L 509,732 L 510,733 L 510,734 L 511,735 L 511,736 L 512,737 L 512,738 L 514,740 L 514,741 L 516,743 L 516,744 L 518,746 L 518,747 L 524,753 L 524,754 L 525,755 L 526,755 L 530,759 L 531,759 L 533,761 L 534,761 L 535,762 L 536,762 L 537,763 L 538,763 L 539,764 L 540,764 L 541,765 L 543,765 L 544,766 L 545,766 L 546,767 L 549,767 L 550,768 L 553,768 L 554,769 L 562,769 L 563,770 L 575,770 L 576,771 L 584,771 L 585,770 L 595,770 L 596,769 L 601,769 L 602,768 L 604,768 L 605,767 L 608,767 L 609,766 L 610,766 L 611,765 L 613,765 L 614,764 L 615,764 L 616,763 L 617,763 L 618,762 L 619,762 L 620,761 L 621,761 L 624,758 L 625,758 L 627,756 L 628,756 L 635,749 L 635,748 L 638,745 L 638,744 L 640,742 L 640,741 L 654,727 L 655,727 L 662,720 L 663,720 L 674,709 L 675,709 L 685,699 L 686,699 L 696,689 L 697,689 L 723,663 L 723,662 L 728,657 L 728,656 L 731,653 L 731,652 L 734,649 L 734,648 L 736,646 L 736,645 L 738,643 L 738,642 L 739,641 L 739,640 L 740,639 L 740,638 L 741,637 L 741,636 L 742,635 L 742,634 L 743,633 L 743,632 L 744,631 L 744,629 L 745,628 L 745,627 L 746,626 L 746,624 L 747,623 L 747,621 L 748,620 L 748,617 L 749,616 L 749,613 L 750,612 L 750,608 L 751,607 L 751,597 L 750,596 L 750,592 L 749,591 L 749,588 L 748,587 L 748,585 L 747,584 L 747,582 L 746,581 L 746,580 L 745,579 L 745,578 L 744,577 L 744,576 L 742,574 L 742,573 L 736,567 L 735,567 L 733,565 L 732,565 L 731,564 L 729,564 L 728,563 L 725,563 L 724,562 L 709,562 L 708,563 L 701,563 L 700,564 L 697,564 L 696,565 L 693,565 L 692,566 L 689,566 L 688,567 L 685,567 L 684,568 L 681,568 L 680,569 L 677,569 L 676,570 L 673,570 L 672,571 L 670,571 L 669,572 L 667,572 L 666,573 L 665,573 L 664,574 L 662,574 L 661,575 L 660,575 L 659,576 L 657,576 L 656,577 L 654,577 L 665,577 L 666,576 L 671,576 L 672,577 L 671,578 L 669,578 L 668,579 L 663,579 L 662,580 L 645,580 L 644,581 L 643,580 L 642,580 L 641,581 L 620,581 L 619,582 L 611,582 L 610,583 L 602,583 L 601,584 L 596,584 L 595,585 L 590,585 L 589,586 L 585,586 L 584,587 L 581,587 L 580,586 L 579,586 L 578,585 L 577,585 L 576,584 L 575,584 L 574,583 L 573,583 L 572,582 L 571,582 L 570,581 L 569,581 L 568,580 L 567,580 L 566,579 L 565,579 L 564,578 L 562,578 L 561,577 L 560,577 L 559,576 L 555,576 L 554,575 L 548,575 L 547,574 L 542,574 L 541,573 L 537,573 L 536,572 L 532,572 L 531,571 L 527,571 L 526,570 L 523,570 L 522,569 L 519,569 L 518,568 L 516,568 L 515,567 L 511,567 L 510,566 L 508,566 L 507,565 L 505,565 L 504,564 L 501,564 L 500,563 L 498,563 L 497,562 L 496,562 L 495,561 L 493,561 L 492,560 L 490,560 L 489,559 L 487,559 L 486,558 L 485,558 L 484,557 L 482,557 L 481,556 L 480,556 L 479,555 L 478,555 L 477,554 L 476,554 L 475,553 L 474,553 L 473,552 L 472,552 L 471,551 L 470,551 L 468,549 L 467,549 L 464,546 L 463,546 L 460,543 L 459,543 L 451,535 L 451,534 L 450,534 L 449,533 L 449,532 L 443,526 L 443,525 L 435,517 L 434,517 L 432,515 L 431,515 L 430,514 L 428,514 L 427,513 L 425,513 L 424,512 Z"/>
<path d="M 724,433 L 723,434 L 715,434 L 714,435 L 711,435 L 710,436 L 708,436 L 707,437 L 706,437 L 705,438 L 704,438 L 703,439 L 702,439 L 701,440 L 700,440 L 699,441 L 698,441 L 695,444 L 694,444 L 690,448 L 690,449 L 687,452 L 687,453 L 686,454 L 686,456 L 685,457 L 685,458 L 684,459 L 684,460 L 683,461 L 683,463 L 682,464 L 682,465 L 681,466 L 681,469 L 680,470 L 680,476 L 679,477 L 679,482 L 678,483 L 678,485 L 677,486 L 677,487 L 675,489 L 675,490 L 673,492 L 673,493 L 672,494 L 672,495 L 670,497 L 670,500 L 671,501 L 673,501 L 674,502 L 675,502 L 676,503 L 676,506 L 677,507 L 677,515 L 678,516 L 678,519 L 679,520 L 679,521 L 678,522 L 678,528 L 679,529 L 679,530 L 681,532 L 682,532 L 683,533 L 685,533 L 686,534 L 693,534 L 694,533 L 697,533 L 698,532 L 699,532 L 700,531 L 702,531 L 703,530 L 704,530 L 705,529 L 706,529 L 708,527 L 709,527 L 710,528 L 710,539 L 709,540 L 709,543 L 708,544 L 708,546 L 707,547 L 707,549 L 706,550 L 706,551 L 705,552 L 705,553 L 704,554 L 704,555 L 702,557 L 702,558 L 701,559 L 701,560 L 704,560 L 705,559 L 708,559 L 709,558 L 712,558 L 713,557 L 719,557 L 720,556 L 723,556 L 724,557 L 727,557 L 728,558 L 730,558 L 731,559 L 733,559 L 734,560 L 735,560 L 736,561 L 737,561 L 739,563 L 740,563 L 746,569 L 746,570 L 748,572 L 748,573 L 749,574 L 749,575 L 750,576 L 750,572 L 749,571 L 749,565 L 748,564 L 748,557 L 747,556 L 747,550 L 746,549 L 746,540 L 745,539 L 745,525 L 748,522 L 749,522 L 752,519 L 753,519 L 760,512 L 760,511 L 763,508 L 763,507 L 765,505 L 765,504 L 766,503 L 766,502 L 767,501 L 767,500 L 768,499 L 768,497 L 769,496 L 769,494 L 770,493 L 777,493 L 778,492 L 780,492 L 781,491 L 782,491 L 787,486 L 787,485 L 788,484 L 788,483 L 789,482 L 789,479 L 790,478 L 790,466 L 789,465 L 789,463 L 788,462 L 788,460 L 786,458 L 786,457 L 782,453 L 781,453 L 780,452 L 778,452 L 777,451 L 770,451 L 769,452 L 767,452 L 766,453 L 763,450 L 763,449 L 757,443 L 756,443 L 753,440 L 752,440 L 751,439 L 750,439 L 749,438 L 748,438 L 747,437 L 746,437 L 745,436 L 743,436 L 742,435 L 739,435 L 738,434 L 732,434 L 731,433 Z"/>
<path d="M 240,409 L 239,410 L 237,410 L 237,411 L 236,412 L 236,413 L 237,414 L 237,417 L 238,418 L 238,419 L 239,420 L 239,421 L 240,422 L 240,423 L 241,424 L 241,425 L 243,427 L 243,428 L 246,431 L 246,432 L 250,436 L 250,437 L 257,444 L 257,445 L 265,453 L 265,454 L 267,456 L 267,458 L 268,459 L 268,462 L 269,463 L 269,466 L 270,467 L 270,470 L 271,471 L 271,474 L 272,475 L 272,477 L 273,478 L 273,480 L 274,481 L 274,482 L 279,487 L 280,487 L 281,488 L 282,488 L 283,489 L 285,489 L 286,490 L 292,490 L 293,489 L 295,489 L 296,488 L 298,488 L 299,487 L 301,487 L 302,486 L 306,486 L 307,487 L 308,487 L 309,488 L 310,488 L 312,490 L 313,490 L 315,492 L 316,492 L 321,497 L 322,497 L 331,506 L 332,506 L 357,531 L 358,531 L 364,537 L 365,537 L 369,541 L 370,541 L 372,543 L 373,543 L 375,545 L 376,545 L 377,546 L 378,546 L 379,547 L 381,547 L 382,548 L 383,548 L 384,549 L 386,549 L 387,550 L 392,550 L 393,549 L 396,549 L 397,548 L 399,548 L 400,547 L 401,547 L 402,546 L 403,546 L 404,545 L 405,545 L 406,544 L 407,544 L 409,542 L 410,542 L 411,541 L 412,541 L 414,539 L 415,539 L 417,537 L 418,537 L 420,535 L 421,535 L 423,533 L 424,533 L 427,530 L 428,530 L 428,528 L 419,519 L 418,519 L 414,515 L 413,515 L 412,514 L 411,514 L 410,513 L 409,513 L 408,514 L 402,514 L 401,515 L 392,515 L 391,516 L 388,516 L 387,515 L 389,513 L 391,513 L 392,512 L 393,512 L 394,511 L 395,511 L 396,510 L 397,510 L 398,509 L 400,509 L 401,508 L 402,508 L 403,507 L 405,507 L 405,506 L 403,506 L 402,505 L 401,505 L 400,504 L 399,504 L 398,503 L 397,503 L 396,502 L 395,502 L 394,501 L 393,501 L 392,500 L 391,500 L 390,499 L 389,499 L 388,498 L 387,498 L 386,497 L 385,497 L 384,496 L 383,496 L 382,495 L 381,495 L 379,493 L 378,493 L 377,492 L 376,492 L 375,491 L 374,491 L 373,490 L 372,490 L 371,489 L 370,489 L 369,488 L 368,488 L 367,487 L 366,487 L 365,486 L 364,486 L 362,484 L 361,484 L 360,483 L 359,483 L 358,482 L 357,482 L 355,480 L 353,480 L 351,478 L 350,478 L 349,477 L 348,477 L 347,476 L 346,476 L 344,474 L 343,474 L 341,472 L 340,472 L 338,470 L 337,470 L 335,468 L 334,468 L 332,466 L 331,466 L 329,464 L 328,464 L 326,462 L 325,462 L 323,460 L 322,460 L 320,458 L 319,458 L 317,456 L 316,456 L 314,454 L 313,454 L 310,451 L 309,451 L 307,449 L 306,449 L 304,447 L 303,447 L 301,445 L 300,445 L 298,443 L 297,443 L 295,441 L 294,441 L 293,440 L 291,440 L 290,439 L 289,439 L 288,438 L 287,438 L 286,437 L 285,437 L 284,436 L 283,436 L 282,435 L 281,435 L 279,433 L 278,433 L 277,432 L 276,432 L 275,431 L 274,431 L 273,430 L 272,430 L 270,428 L 269,428 L 268,427 L 267,427 L 265,425 L 264,425 L 263,424 L 262,424 L 259,421 L 258,421 L 255,418 L 254,418 L 251,415 L 250,415 L 246,411 L 245,411 L 244,410 L 241,410 Z"/>
</svg>